<svg width="155" height="37" viewBox="0 0 155 37" fill="none" xmlns="http://www.w3.org/2000/svg">
<g clip-path="url(#clip0_248_5283)">
<path d="M40.4409 18.7729C40.4409 20.6835 40.0273 22.1559 39.1919 23.1815C38.3566 24.2071 37.1243 24.7282 35.4866 24.7282C34.2211 24.7282 33.179 24.3394 32.3601 23.5537C31.5413 22.7679 31.1276 21.3618 31.1276 19.3271V9.17041H27.6292V20.4851C27.6292 22.6935 28.1997 24.4718 29.3411 25.8034C30.4825 27.1433 32.1202 27.8132 34.2542 27.8132C35.5941 27.8132 36.8265 27.5238 37.9596 26.9531C39.0844 26.3824 39.9115 25.6297 40.4327 24.6785L40.6559 27.3583H43.8899V9.17041H40.4327V18.7729H40.4409Z" fill="#F8F8F7"/>
<path d="M63.1533 12.1806C62.6405 11.2129 61.921 10.4272 60.9698 9.82334C59.7373 9.03765 58.3065 8.64893 56.6688 8.64893C54.9319 8.64893 53.4183 9.05414 52.1281 9.873C50.8378 10.6919 49.837 11.7919 49.1339 13.1649C48.4309 14.5462 48.0752 16.0846 48.0752 17.7967C48.0752 19.5089 48.4227 21.0472 49.1175 22.4119C49.8121 23.7767 50.7964 24.8602 52.0619 25.6706C53.3274 26.4812 54.8161 26.8782 56.5282 26.8782C58.2403 26.8782 59.6217 26.4895 60.8787 25.7038C61.8052 25.1331 62.5247 24.3969 63.0375 23.5119V27.1346C63.0375 28.8467 62.5247 30.2281 61.5156 31.2701C60.4983 32.3124 59.1171 32.8334 57.3801 32.8334C55.8666 32.8334 54.6094 32.4612 53.625 31.7168C52.6326 30.9725 52.0205 29.9302 51.7973 28.5903H48.3398C48.5383 30.104 49.0429 31.4107 49.8452 32.5191C50.6476 33.6191 51.6897 34.4794 52.9552 35.0831C54.2207 35.6952 55.6432 35.9929 57.2395 35.9929C59.1004 35.9929 60.7217 35.6124 62.0946 34.8432C63.4759 34.074 64.5429 32.9905 65.2956 31.5844C66.0565 30.1784 66.4286 28.5242 66.4286 26.6136V9.16997H63.418L63.1616 12.1723L63.1533 12.1806ZM62.1277 20.7659C61.6646 21.6924 61.0028 22.4368 60.1345 22.9991C59.2659 23.5616 58.2486 23.8344 57.0824 23.8344C55.9907 23.8344 55.0311 23.5616 54.1957 23.0158C53.3686 22.4698 52.7235 21.742 52.2769 20.8238C51.8302 19.9058 51.607 18.872 51.607 17.7306C51.607 16.5892 51.8302 15.6048 52.2769 14.6951C52.7235 13.7853 53.3521 13.0656 54.171 12.5198C54.9898 11.9738 55.9575 11.7009 57.0742 11.7009C58.29 11.7009 59.3156 11.9738 60.1675 12.5198C61.0111 13.0656 61.6646 13.7935 62.1195 14.6951C62.5744 15.5966 62.806 16.6139 62.806 17.7306C62.806 18.8471 62.5744 19.8314 62.1195 20.7659H62.1277Z" fill="#F8F8F7"/>
<path d="M92.176 8.69044C90.5385 8.69044 89.1572 9.12041 88.0407 9.97243C87.2218 10.601 86.6344 11.3867 86.2706 12.3297C85.8735 11.3867 85.2781 10.601 84.4924 9.97243C83.4171 9.12041 82.0193 8.69044 80.3072 8.69044C79.0417 8.69044 77.892 9.00475 76.8664 9.6167C76.0641 10.0965 75.4521 10.7334 75.022 11.5108L74.7656 9.20324H71.6392V27.3995H75.1378V16.4569C75.1378 15.514 75.3281 14.6869 75.692 13.9674C76.0641 13.2477 76.5769 12.6936 77.2387 12.3132C77.892 11.9327 78.6612 11.7342 79.5297 11.7342C80.7703 11.7342 81.7547 12.1229 82.4907 12.8921C83.2269 13.6613 83.5909 14.7613 83.5909 16.2005V27.3995H87.0149V16.4899C87.0149 15.5223 87.1969 14.6787 87.5691 13.959C87.9414 13.2394 88.4542 12.6852 89.1158 12.3049C89.7693 11.9244 90.5385 11.7258 91.4068 11.7258C92.6227 11.7258 93.5988 12.1147 94.3265 12.9004C95.0545 13.6778 95.4267 14.7778 95.4267 16.1923V27.3911H98.8095V15.4396C98.8095 13.3305 98.2222 11.6763 97.056 10.4687C95.8898 9.2694 94.2604 8.66553 92.1845 8.66553L92.176 8.69044Z" fill="#F8F8F7"/>
<path d="M118.081 24.9101C118.875 23.9921 119.405 22.9169 119.686 21.6763H116.411C116.138 22.5943 115.534 23.347 114.607 23.9425C113.681 24.5381 112.581 24.8357 111.316 24.8357C109.802 24.8357 108.57 24.3808 107.61 23.4793C106.651 22.5778 106.13 21.2379 106.03 19.4761H119.653V18.2106C119.653 16.2753 119.314 14.5962 118.627 13.1654C117.941 11.7428 116.973 10.6261 115.724 9.83219C114.475 9.03808 112.978 8.64111 111.241 8.64111C109.504 8.64111 108.057 9.03808 106.758 9.83219C105.452 10.6261 104.442 11.7428 103.723 13.1819C103.003 14.6211 102.639 16.325 102.639 18.2851C102.639 20.2453 102.995 21.8748 103.723 23.3138C104.442 24.7531 105.452 25.8613 106.758 26.6472C108.065 27.4329 109.57 27.8216 111.282 27.8216C112.672 27.8216 113.954 27.5652 115.137 27.0606C116.32 26.5561 117.304 25.8366 118.098 24.9186L118.081 24.9101ZM107.569 12.9999C108.52 12.0571 109.719 11.5856 111.158 11.5856C112.101 11.5856 112.945 11.7923 113.689 12.1977C114.434 12.6029 115.029 13.215 115.476 14.0255C115.923 14.8361 116.154 15.8699 116.179 17.1354H106.055C106.105 15.3241 106.609 13.951 107.561 12.9999H107.569Z" fill="#F8F8F7"/>
<path d="M136.84 17.0275V27.3745H140.339V16.2417C140.339 13.9589 139.784 12.1228 138.684 10.7333C137.584 9.34371 135.798 8.64893 133.341 8.64893C132.076 8.64893 130.901 8.93849 129.826 9.52569C128.751 10.1129 127.907 10.9235 127.312 11.9656L126.94 9.16997H123.772V27.3331H127.27V17.7306C127.27 16.7132 127.403 15.8282 127.684 15.0673C127.957 14.3146 128.337 13.6942 128.817 13.2228C129.297 12.7513 129.859 12.404 130.496 12.1806C131.125 11.9573 131.778 11.8415 132.448 11.8415C132.994 11.8415 133.523 11.9159 134.044 12.0649C134.565 12.2137 135.037 12.4784 135.459 12.8506C135.88 13.2228 136.22 13.7439 136.459 14.4139C136.708 15.0838 136.832 15.9523 136.832 17.0191L136.84 17.0275Z" fill="#F8F8F7"/>
<path d="M153.424 11.7547H149.915C149.915 29.5846 147.332 29.7665 147.332 11.7547H143.072V9.18077H144.437C146.987 8.99979 147.899 7.0508 147.875 3.9668H150.802C150.802 6.81225 149.914 8.79424 148.582 9.18077H153.424V11.7547Z" fill="#F8F8F7" stroke="#F8F8F7" stroke-width="1.17696"/>
<path d="M153.527 11.9875V9.08447H149.988H146.53H142.957V11.9875H146.53V27.289H149.988V11.9875H153.527Z" fill="#F8F8F7"/>
<path d="M12.663 4.6175L4.64414 27.3747H0.806396L10.6738 0.460938H14.6521L24.5194 27.3747H20.6817L12.663 4.6175Z" fill="#F8F8F7"/>
</g>
<defs>
<clipPath id="clip0_248_5283">
<rect width="154.545" height="36.3636" fill="white"/>
</clipPath>
</defs>
</svg>
